Mp4 rip from the original DVD's.One season one dvd 4.7 GB, every episode is 400Mb, 

720x480 resolution original,5,1 sound!Excellent quality!!!Serbian subtitle inside!



Format                                   : MPEG-4
Format profile                           : Base Media / Version 2
Codec ID                                 : mp42
File size                                : 419 MiB
Duration                                 : 52mn 54s
Overall bit rate mode                    : Variable
Overall bit rate                         : 1 106 Kbps
Encoded date                             : UTC 2013-05-05 03:33:15
Tagged date                              : UTC 2013-05-05 03:33:15
┬⌐TIM                                     : 00:00:00:00
┬⌐TSC                                     : 24000
┬⌐TSZ                                     : 1001

Video
ID                                       : 1
Format                                   : AVC
Format/Info                              : Advanced Video Codec
Format profile                           : High@L3.1
Format settings, CABAC                   : Yes
Format settings, ReFrames                : 3 frames
Codec ID                                 : avc1
Codec ID/Info                            : Advanced Video Coding
Duration                                 : 52mn 54s
Source duration                          : 52mn 54s
Bit rate                                 : 945 Kbps
Width                                    : 720 pixels
Height                                   : 480 pixels
Display aspect ratio                     : 16:9
Frame rate mode                          : Variable
Frame rate                               : 23.976 fps
Minimum frame rate                       : 23.976 fps
Maximum frame rate                       : 24.000 fps
Standard                                 : NTSC
Color space                              : YUV
Chroma subsampling                       : 4:2:0
Bit depth                                : 8 bits
Scan type                                : Progressive
Bits/(Pixel*Frame)                       : 0.114
Stream size                              : 358 MiB (85%)
Source stream size                       : 358 MiB (85%)
Language                                 : English
Encoded date                             : UTC 2013-05-05 03:33:15
Tagged date                              : UTC 2013-05-05 03:33:15
mdhd_Duration                            : 3174380
Color primaries                          : BT.601 NTSC
Transfer characteristics                 : BT.601
Matrix coefficients                      : BT.601

Audio
ID                                       : 2
Format                                   : AAC
Format/Info                              : Advanced Audio Codec
Format profile                           : LC
Codec ID                                 : 40
Duration                                 : 52mn 54s
Source duration                          : 52mn 54s
Bit rate mode                            : Variable
Bit rate                                 : 157 Kbps
Maximum bit rate                         : 232 Kbps
Channel(s)                               : 6 channels
Channel positions                        : Front: L C R, Side: L R, LFE
Sampling rate                            : 48.0 KHz
Compression mode                         : Lossy
Stream size                              : 59.6 MiB (14%)
Source stream size                       : 59.6 MiB (14%)
Language                                 : English
Encoded date                             : UTC 2013-05-05 03:33:15
Tagged date                              : UTC 2013-05-05 03:33:15
mdhd_Duration                            : 3174421